<?xml version="1.0" encoding="UTF-8"?>
<!DOCTYPE svg PUBLIC "-//W3C//DTD SVG 1.1//EN" "http://www.w3.org/Graphics/SVG/1.1/DTD/svg11.dtd">
<svg version="1.1" xmlns="http://www.w3.org/2000/svg" xmlns:xlink="http://www.w3.org/1999/xlink" x="0" y="0" width="50" height="50" viewBox="0, 0, 50, 50">
  <g id="Ebene_1">
    <path d="M1.804,10.539 L37.857,0.878 C38.556,0.691 39.274,1.106 39.461,1.804 L49.122,37.857 C49.309,38.556 48.894,39.274 48.196,39.461 L12.143,49.122 C11.444,49.309 10.726,48.894 10.539,48.196 L0.878,12.143 C0.691,11.444 1.106,10.726 1.804,10.539 z" fill="#A46B49"/>
    <path d="M6.338,5.028 L43.662,5.028 C44.386,5.028 44.972,5.614 44.972,6.338 L44.972,43.662 C44.972,44.386 44.386,44.972 43.662,44.972 L6.338,44.972 C5.614,44.972 5.028,44.386 5.028,43.662 L5.028,6.338 C5.028,5.614 5.614,5.028 6.338,5.028 z" fill="#CE8A61"/>
    <path d="M9.091,7.975 L40.909,7.975 C41.526,7.975 42.025,8.474 42.025,9.091 L42.025,40.909 C42.025,41.526 41.526,42.025 40.909,42.025 L9.091,42.025 C8.474,42.025 7.975,41.526 7.975,40.909 L7.975,9.091 C7.975,8.474 8.474,7.975 9.091,7.975 z" fill="#DCF5FE"/>
    <path d="M13.878,19.258 C11.992,19.258 10.463,17.729 10.463,15.843 C10.463,13.957 11.992,12.427 13.878,12.427 C15.765,12.427 17.294,13.957 17.294,15.843 C17.294,17.729 15.765,19.258 13.878,19.258 z" fill="#E79F29"/>
    <path d="M11.118,42.025 L17.535,28.405 C17.535,28.405 19.004,25.041 20.809,28.012 C22.573,30.916 23.036,32.203 23.036,32.203 C23.036,32.203 28.963,21.365 29.453,20.547 C30.402,18.963 31.099,18.796 32.596,20.285 C34.208,21.89 42.025,29.584 42.025,29.584 L42.025,40.909 C42.025,40.909 42.169,42.025 40.909,42.025 C39.406,42.025 11.118,42.025 11.118,42.025 z" fill="#269D25"/>
  </g>
</svg>
