<?xml version="1.0" encoding="UTF-8" standalone="no"?><!DOCTYPE svg PUBLIC "-//W3C//DTD SVG 1.1//EN" "http://www.w3.org/Graphics/SVG/1.1/DTD/svg11.dtd"><svg width="100%" height="100%" viewBox="0 0 512 512" version="1.1" xmlns="http://www.w3.org/2000/svg" xmlns:xlink="http://www.w3.org/1999/xlink" xml:space="preserve" style="fill-rule:evenodd;clip-rule:evenodd;stroke-linejoin:round;stroke-miterlimit:1.41421;"><g id="Ebene1"><path d="M467.184,141.789l-314.368,0c-6.097,0.001 -11.027,4.931 -11.027,11.027l0,314.368c0,6.096 4.931,11.027 11.027,11.027l314.368,0c6.097,-0.001 11.027,-4.931 11.027,-11.027l0,-314.368c0,-6.096 -4.93,-11.026 -11.027,-11.027Zm-356.893,257.923l-96.902,0.001c-7.236,-0.002 -13.097,-5.869 -13.096,-13.095l-0.006,-373.229c0.002,-7.236 5.869,-13.097 13.095,-13.096l373.229,-0.006c7.236,0.002 13.097,5.869 13.096,13.095l0.002,96.909l96.901,0c7.239,0 13.099,5.86 13.099,13.099l0,373.22c0,7.239 -5.858,13.098 -13.099,13.099l-373.22,0c-7.239,0 -13.099,-5.86 -13.099,-13.099l0,-96.898Zm0,-31.501l0,-244.821c0,-7.239 5.86,-13.099 13.099,-13.099l244.821,0l0,-67.475c0,-6.096 -4.931,-11.027 -11.027,-11.027l-314.368,0c-6.096,0 -11.027,4.931 -11.027,11.027l0,314.368c0,6.096 4.93,11.026 11.027,11.027l67.475,0Z" style="fill:#828282;stroke:#828282;stroke-width:1px;"/><path d="M233.034,251.737c-18.859,0 -34.148,-15.289 -34.148,-34.148c0,-18.859 15.289,-34.158 34.148,-34.158c18.869,0 34.158,15.299 34.158,34.158c0,18.859 -15.289,34.148 -34.158,34.148Z" style="fill:#828282;fill-rule:nonzero;stroke:#828282;stroke-width:20px;"/><path d="M178.703,501.262l66.372,-140.874c0,0 15.194,-34.795 33.864,-4.065c18.245,30.036 23.034,43.348 23.034,43.348c0,0 61.304,-112.1 66.372,-120.56c9.816,-16.384 17.025,-18.111 32.509,-2.71c16.673,16.601 97.526,96.181 97.526,96.181l0,117.137c0,0 1.489,11.543 -11.543,11.543c-15.546,0 -308.134,0 -308.134,0Z" style="fill:#828282;fill-rule:nonzero;stroke:#828282;stroke-width:20px;"/></g></svg>