<?xml version="1.0" encoding="UTF-8" standalone="no"?>
<!DOCTYPE svg PUBLIC "-//W3C//DTD SVG 1.1//EN" "http://www.w3.org/Graphics/SVG/1.1/DTD/svg11.dtd">
<svg width="100%" height="100%" viewBox="0 0 11 11" version="1.1" xmlns="http://www.w3.org/2000/svg" xmlns:xlink="http://www.w3.org/1999/xlink" xml:space="preserve" style="fill-rule:evenodd;clip-rule:evenodd;stroke-linecap:round;stroke-linejoin:round;stroke-miterlimit:1.41421;">
    <g transform="matrix(0.882956,0,0,0.882956,0.963959,0.310016)">
        <rect x="2.898" y="3.638" width="4.48" height="4.48" style="fill:none;stroke-width:0.23px;stroke:rgb(130,130,130);"/>
    </g>
    <g transform="matrix(1,6.29482e-17,6.29482e-17,0.742994,0.148104,1.41295)">
        <path d="M2.352,3.479L2.352,7.517" style="fill:none;stroke-width:0.23px;stroke:rgb(130,130,130);"/>
    </g>
    <g transform="matrix(1,1.23609e-16,1.23609e-16,0.49533,-0.851896,2.77454)">
        <path d="M2.352,3.479L2.352,7.517" style="fill:none;stroke-width:0.25px;stroke:rgb(130,130,130);"/>
    </g>
    <g transform="matrix(1,1.23609e-16,1.23609e-16,0.49533,7.1481,2.77454)">
        <path d="M2.352,3.479L2.352,7.517" style="fill:none;stroke-width:0.25px;stroke:rgb(130,130,130);"/>
    </g>
    <g transform="matrix(1,6.29482e-17,6.29482e-17,0.742994,6.1481,1.41295)">
        <path d="M2.352,3.479L2.352,7.517" style="fill:none;stroke-width:0.23px;stroke:rgb(130,130,130);"/>
    </g>
</svg>
